<?xml version="1.0" encoding="UTF-8"?>
<svg width="602px" height="602px" viewBox="0 0 602 602" version="1.1" xmlns="http://www.w3.org/2000/svg" xmlns:xlink="http://www.w3.org/1999/xlink">
    <!-- Generator: Sketch 63.1 (92452) - https://sketch.com -->
    <title>Group 3</title>
    <desc>Created with Sketch.</desc>
    <g id="Page-1" stroke="none" stroke-width="1" fill="none" fill-rule="evenodd">
        <g id="Group-3" transform="translate(1.000000, 1.000000)">
            <rect id="Rectangle" stroke="#979797" fill="#FFFFFF" x="0" y="0" width="600" height="600"></rect>
            <g id="Group-2" transform="translate(10.628019, 12.540193)" fill="#D8D8D8">
                <g id="Group">
                    <rect id="Rectangle" x="0" y="0" width="144.927536" height="28.9389068"></rect>
                    <rect id="Rectangle-Copy" x="0" y="28.9389068" width="144.927536" height="28.9389068"></rect>
                    <rect id="Rectangle-Copy-2" x="0" y="57.8778135" width="144.927536" height="28.9389068"></rect>
                    <rect id="Rectangle-Copy-3" x="0" y="86.8167203" width="144.927536" height="28.9389068"></rect>
                    <rect id="Rectangle-Copy-4" x="0" y="115.755627" width="144.927536" height="28.9389068"></rect>
                </g>
                <g id="Group-Copy" transform="translate(217.391304, 72.347267) rotate(-90.000000) translate(-217.391304, -72.347267) translate(144.927536, 0.000000)">
                    <rect id="Rectangle" x="0" y="0" width="144.927536" height="28.9389068"></rect>
                    <rect id="Rectangle-Copy" x="0" y="28.9389068" width="144.927536" height="28.9389068"></rect>
                    <rect id="Rectangle-Copy-2" x="0" y="57.8778135" width="144.927536" height="28.9389068"></rect>
                    <rect id="Rectangle-Copy-3" x="0" y="86.8167203" width="144.927536" height="28.9389068"></rect>
                    <rect id="Rectangle-Copy-4" x="0" y="115.755627" width="144.927536" height="28.9389068"></rect>
                </g>
                <g id="Group-Copy-3" transform="translate(289.855072, 0.000000)">
                    <rect id="Rectangle" x="0" y="0" width="144.927536" height="28.9389068"></rect>
                    <rect id="Rectangle-Copy" x="0" y="28.9389068" width="144.927536" height="28.9389068"></rect>
                    <rect id="Rectangle-Copy-2" x="0" y="57.8778135" width="144.927536" height="28.9389068"></rect>
                    <rect id="Rectangle-Copy-3" x="0" y="86.8167203" width="144.927536" height="28.9389068"></rect>
                    <rect id="Rectangle-Copy-4" x="0" y="115.755627" width="144.927536" height="28.9389068"></rect>
                </g>
                <g id="Group-Copy-7" transform="translate(144.927536, 144.694534)">
                    <rect id="Rectangle" x="0" y="0" width="144.927536" height="28.9389068"></rect>
                    <rect id="Rectangle-Copy" x="0" y="28.9389068" width="144.927536" height="28.9389068"></rect>
                    <rect id="Rectangle-Copy-2" x="0" y="57.8778135" width="144.927536" height="28.9389068"></rect>
                    <rect id="Rectangle-Copy-3" x="0" y="86.8167203" width="144.927536" height="28.9389068"></rect>
                    <rect id="Rectangle-Copy-4" x="0" y="115.755627" width="144.927536" height="28.9389068"></rect>
                </g>
                <g id="Group-Copy-6" transform="translate(362.318841, 217.041801) rotate(-90.000000) translate(-362.318841, -217.041801) translate(289.855072, 144.694534)">
                    <rect id="Rectangle" x="0" y="0" width="144.927536" height="28.9389068"></rect>
                    <rect id="Rectangle-Copy" x="0" y="28.9389068" width="144.927536" height="28.9389068"></rect>
                    <rect id="Rectangle-Copy-2" x="0" y="57.8778135" width="144.927536" height="28.9389068"></rect>
                    <rect id="Rectangle-Copy-3" x="0" y="86.8167203" width="144.927536" height="28.9389068"></rect>
                    <rect id="Rectangle-Copy-4" x="0" y="115.755627" width="144.927536" height="28.9389068"></rect>
                </g>
                <g id="Group-Copy-5" transform="translate(434.782609, 144.694534)">
                    <rect id="Rectangle" x="0" y="0" width="144.927536" height="28.9389068"></rect>
                    <rect id="Rectangle-Copy" x="0" y="28.9389068" width="144.927536" height="28.9389068"></rect>
                    <rect id="Rectangle-Copy-2" x="0" y="57.8778135" width="144.927536" height="28.9389068"></rect>
                    <rect id="Rectangle-Copy-3" x="0" y="86.8167203" width="144.927536" height="28.9389068"></rect>
                    <rect id="Rectangle-Copy-4" x="0" y="115.755627" width="144.927536" height="28.9389068"></rect>
                </g>
                <g id="Group-Copy-2" transform="translate(507.246377, 72.347267) rotate(-90.000000) translate(-507.246377, -72.347267) translate(434.782609, 0.000000)">
                    <rect id="Rectangle" x="0" y="0" width="144.927536" height="28.9389068"></rect>
                    <rect id="Rectangle-Copy" x="0" y="28.9389068" width="144.927536" height="28.9389068"></rect>
                    <rect id="Rectangle-Copy-2" x="0" y="57.8778135" width="144.927536" height="28.9389068"></rect>
                    <rect id="Rectangle-Copy-3" x="0" y="86.8167203" width="144.927536" height="28.9389068"></rect>
                    <rect id="Rectangle-Copy-4" x="0" y="115.755627" width="144.927536" height="28.9389068"></rect>
                </g>
                <g id="Group-Copy-4" transform="translate(72.463768, 217.041801) rotate(-90.000000) translate(-72.463768, -217.041801) translate(0.000000, 144.694534)">
                    <rect id="Rectangle" x="0" y="0" width="144.927536" height="28.9389068"></rect>
                    <rect id="Rectangle-Copy" x="0" y="28.9389068" width="144.927536" height="28.9389068"></rect>
                    <rect id="Rectangle-Copy-2" x="0" y="57.8778135" width="144.927536" height="28.9389068"></rect>
                    <rect id="Rectangle-Copy-3" x="0" y="86.8167203" width="144.927536" height="28.9389068"></rect>
                    <rect id="Rectangle-Copy-4" x="0" y="115.755627" width="144.927536" height="28.9389068"></rect>
                </g>
                <g id="Group-Copy-15" transform="translate(0.000000, 289.389068)">
                    <rect id="Rectangle" x="0" y="0" width="144.927536" height="28.9389068"></rect>
                    <rect id="Rectangle-Copy" x="0" y="28.9389068" width="144.927536" height="28.9389068"></rect>
                    <rect id="Rectangle-Copy-2" x="0" y="57.8778135" width="144.927536" height="28.9389068"></rect>
                    <rect id="Rectangle-Copy-3" x="0" y="86.8167203" width="144.927536" height="28.9389068"></rect>
                    <rect id="Rectangle-Copy-4" x="0" y="115.755627" width="144.927536" height="28.9389068"></rect>
                </g>
                <g id="Group-Copy-14" transform="translate(217.391304, 361.736334) rotate(-90.000000) translate(-217.391304, -361.736334) translate(144.927536, 289.389068)">
                    <rect id="Rectangle" x="0" y="0" width="144.927536" height="28.9389068"></rect>
                    <rect id="Rectangle-Copy" x="0" y="28.9389068" width="144.927536" height="28.9389068"></rect>
                    <rect id="Rectangle-Copy-2" x="0" y="57.8778135" width="144.927536" height="28.9389068"></rect>
                    <rect id="Rectangle-Copy-3" x="0" y="86.8167203" width="144.927536" height="28.9389068"></rect>
                    <rect id="Rectangle-Copy-4" x="0" y="115.755627" width="144.927536" height="28.9389068"></rect>
                </g>
                <g id="Group-Copy-13" transform="translate(289.855072, 289.389068)">
                    <rect id="Rectangle" x="0" y="0" width="144.927536" height="28.9389068"></rect>
                    <rect id="Rectangle-Copy" x="0" y="28.9389068" width="144.927536" height="28.9389068"></rect>
                    <rect id="Rectangle-Copy-2" x="0" y="57.8778135" width="144.927536" height="28.9389068"></rect>
                    <rect id="Rectangle-Copy-3" x="0" y="86.8167203" width="144.927536" height="28.9389068"></rect>
                    <rect id="Rectangle-Copy-4" x="0" y="115.755627" width="144.927536" height="28.9389068"></rect>
                </g>
                <g id="Group-Copy-12" transform="translate(144.927536, 434.083601)">
                    <rect id="Rectangle" x="0" y="0" width="144.927536" height="28.9389068"></rect>
                    <rect id="Rectangle-Copy" x="0" y="28.9389068" width="144.927536" height="28.9389068"></rect>
                    <rect id="Rectangle-Copy-2" x="0" y="57.8778135" width="144.927536" height="28.9389068"></rect>
                    <rect id="Rectangle-Copy-3" x="0" y="86.8167203" width="144.927536" height="28.9389068"></rect>
                    <rect id="Rectangle-Copy-4" x="0" y="115.755627" width="144.927536" height="28.9389068"></rect>
                </g>
                <g id="Group-Copy-11" transform="translate(362.318841, 506.430868) rotate(-90.000000) translate(-362.318841, -506.430868) translate(289.855072, 434.083601)">
                    <rect id="Rectangle" x="0" y="0" width="144.927536" height="28.9389068"></rect>
                    <rect id="Rectangle-Copy" x="0" y="28.9389068" width="144.927536" height="28.9389068"></rect>
                    <rect id="Rectangle-Copy-2" x="0" y="57.8778135" width="144.927536" height="28.9389068"></rect>
                    <rect id="Rectangle-Copy-3" x="0" y="86.8167203" width="144.927536" height="28.9389068"></rect>
                    <rect id="Rectangle-Copy-4" x="0" y="115.755627" width="144.927536" height="28.9389068"></rect>
                </g>
                <g id="Group-Copy-10" transform="translate(434.782609, 434.083601)">
                    <rect id="Rectangle" x="0" y="0" width="144.927536" height="28.9389068"></rect>
                    <rect id="Rectangle-Copy" x="0" y="28.9389068" width="144.927536" height="28.9389068"></rect>
                    <rect id="Rectangle-Copy-2" x="0" y="57.8778135" width="144.927536" height="28.9389068"></rect>
                    <rect id="Rectangle-Copy-3" x="0" y="86.8167203" width="144.927536" height="28.9389068"></rect>
                    <rect id="Rectangle-Copy-4" x="0" y="115.755627" width="144.927536" height="28.9389068"></rect>
                </g>
                <g id="Group-Copy-9" transform="translate(507.246377, 361.736334) rotate(-90.000000) translate(-507.246377, -361.736334) translate(434.782609, 289.389068)">
                    <rect id="Rectangle" x="0" y="0" width="144.927536" height="28.9389068"></rect>
                    <rect id="Rectangle-Copy" x="0" y="28.9389068" width="144.927536" height="28.9389068"></rect>
                    <rect id="Rectangle-Copy-2" x="0" y="57.8778135" width="144.927536" height="28.9389068"></rect>
                    <rect id="Rectangle-Copy-3" x="0" y="86.8167203" width="144.927536" height="28.9389068"></rect>
                    <rect id="Rectangle-Copy-4" x="0" y="115.755627" width="144.927536" height="28.9389068"></rect>
                </g>
                <g id="Group-Copy-8" transform="translate(72.463768, 506.430868) rotate(-90.000000) translate(-72.463768, -506.430868) translate(0.000000, 434.083601)">
                    <rect id="Rectangle" x="0" y="0" width="144.927536" height="28.9389068"></rect>
                    <rect id="Rectangle-Copy" x="0" y="28.9389068" width="144.927536" height="28.9389068"></rect>
                    <rect id="Rectangle-Copy-2" x="0" y="57.8778135" width="144.927536" height="28.9389068"></rect>
                    <rect id="Rectangle-Copy-3" x="0" y="86.8167203" width="144.927536" height="28.9389068"></rect>
                    <rect id="Rectangle-Copy-4" x="0" y="115.755627" width="144.927536" height="28.9389068"></rect>
                </g>
            </g>
        </g>
    </g>
</svg>