<svg id="preview-lines" class="previews hidden" viewBox="0 0 602 602" version="1.1" xmlns="http://www.w3.org/2000/svg" xmlns:xlink="http://www.w3.org/1999/xlink">
   
    <defs>
        <pattern id="previewlines001" patternUnits="userSpaceOnUse" width="100" height="100">
            <image href="https://ildikotuck.github.io/images/textures/001.jpg" x="0" y="0" width="100" height="100" />
        </pattern>
        <pattern id="previewlines002" patternUnits="userSpaceOnUse" width="100" height="100">
            <image href="https://ildikotuck.github.io/images/textures/002.jpg" x="0" y="0" width="100" height="100" />
        </pattern>
        <pattern id="previewlines003" patternUnits="userSpaceOnUse" width="100" height="100">
            <image href="https://ildikotuck.github.io/images/textures/003.jpg" x="0" y="0" width="100" height="100" />
        </pattern>
        <pattern id="previewlines004" patternUnits="userSpaceOnUse" width="100" height="100">
            <image href="https://ildikotuck.github.io/images/textures/004.jpg" x="0" y="0" width="100" height="100" />
        </pattern>
        <pattern id="previewlines005" patternUnits="userSpaceOnUse" width="100" height="100">
            <image href="https://ildikotuck.github.io/images/textures/005.jpg" x="0" y="0" width="100" height="100" />
        </pattern>
        <pattern id="previewlines006" patternUnits="userSpaceOnUse" width="100" height="100">
            <image href="https://ildikotuck.github.io/images/textures/006.jpg" x="0" y="0" width="100" height="100" />
        </pattern>
        <pattern id="previewlines007" patternUnits="userSpaceOnUse" width="100" height="100">
            <image href="https://ildikotuck.github.io/images/textures/007.jpg" x="0" y="0" width="100" height="100" />
        </pattern>
        <pattern id="previewlines008" patternUnits="userSpaceOnUse" width="100" height="100">
            <image href="https://ildikotuck.github.io/images/textures/008.jpg" x="0" y="0" width="100" height="100" />
        </pattern>
        <pattern id="previewlines009" patternUnits="userSpaceOnUse" width="100" height="100">
            <image href="https://ildikotuck.github.io/images/textures/009.jpg" x="0" y="0" width="100" height="100" />
        </pattern>
        <pattern id="previewlines010" patternUnits="userSpaceOnUse" width="100" height="100">
            <image href="https://ildikotuck.github.io/images/textures/010.jpg" x="0" y="0" width="100" height="100" />
        </pattern>
        <pattern id="previewlines011" patternUnits="userSpaceOnUse" width="100" height="100">
            <image href="https://ildikotuck.github.io/images/textures/011.jpg" x="0" y="0" width="100" height="100" />
        </pattern>
        <pattern id="previewlines012" patternUnits="userSpaceOnUse" width="100" height="100">
            <image href="https://ildikotuck.github.io/images/textures/012.jpg" x="0" y="0" width="100" height="100" />
        </pattern>
        <pattern id="previewlines013" patternUnits="userSpaceOnUse" width="100" height="100">
            <image href="https://ildikotuck.github.io/images/textures/013.jpg" x="0" y="0" width="100" height="100" />
        </pattern>
        <pattern id="previewlines014" patternUnits="userSpaceOnUse" width="100" height="100">
            <image href="https://ildikotuck.github.io/images/textures/014.jpg" x="0" y="0" width="100" height="100" />
        </pattern>
        <pattern id="previewlines015" patternUnits="userSpaceOnUse" width="100" height="100">
            <image href="https://ildikotuck.github.io/images/textures/015.jpg" x="0" y="0" width="100" height="100" />
        </pattern>
        <pattern id="lpreviewines016" patternUnits="userSpaceOnUse" width="100" height="100">
            <image href="https://ildikotuck.github.io/images/textures/016.jpg" x="0" y="0" width="100" height="100" />
        </pattern>
        <pattern id="previewlines017" patternUnits="userSpaceOnUse" width="100" height="100">
            <image href="https://ildikotuck.github.io/images/textures/017.jpg" x="0" y="0" width="100" height="100" />
        </pattern>
        <pattern id="previewlines018" patternUnits="userSpaceOnUse" width="100" height="100">
            <image href="https://ildikotuck.github.io/images/textures/018.jpg" x="0" y="0" width="100" height="100" />
        </pattern>
        <pattern id="previewlines019" patternUnits="userSpaceOnUse" width="100" height="100">
            <image href="https://ildikotuck.github.io/images/textures/019.jpg" x="0" y="0" width="100" height="100" />
        </pattern>
        <pattern id="previewlines020" patternUnits="userSpaceOnUse" width="100" height="100">
            <image href="https://ildikotuck.github.io/images/textures/020.jpg" x="0" y="0" width="100" height="100" />
        </pattern>
        <pattern id="previewlines021" patternUnits="userSpaceOnUse" width="100" height="100">
            <image href="https://ildikotuck.github.io/images/textures/021.jpg" x="0" y="0" width="100" height="100" />
        </pattern>
        <pattern id="previewlines022" patternUnits="userSpaceOnUse" width="100" height="100">
            <image href="https://ildikotuck.github.io/images/textures/022.jpg" x="0" y="0" width="100" height="100" />
        </pattern>
        <pattern id="previewlines023" patternUnits="userSpaceOnUse" width="100" height="100">
            <image href="https://ildikotuck.github.io/images/textures/023.jpg" x="0" y="0" width="100" height="100" />
        </pattern>
        <pattern id="previewlines024" patternUnits="userSpaceOnUse" width="100" height="100">
            <image href="https://ildikotuck.github.io/images/textures/024.jpg" x="0" y="0" width="100" height="100" />
        </pattern>
        <pattern id="previewlines025" patternUnits="userSpaceOnUse" width="100" height="100">
            <image href="https://ildikotuck.github.io/images/textures/025.jpg" x="0" y="0" width="100" height="100" />
        </pattern>
        <pattern id="previewlines026" patternUnits="userSpaceOnUse" width="100" height="100">
            <image href="https://ildikotuck.github.io/images/textures/026.jpg" x="0" y="0" width="100" height="100" />
        </pattern>
        <pattern id="previewlines027" patternUnits="userSpaceOnUse" width="100" height="100">
            <image href="https://ildikotuck.github.io/images/textures/027.jpg" x="0" y="0" width="100" height="100" />
        </pattern>
        <pattern id="previewlines028" patternUnits="userSpaceOnUse" width="100" height="100">
            <image href="https://ildikotuck.github.io/images/textures/028.jpg" x="0" y="0" width="100" height="100" />
        </pattern>
        <pattern id="previewlines029" patternUnits="userSpaceOnUse" width="100" height="100">
            <image href="https://ildikotuck.github.io/images/textures/029.jpg" x="0" y="0" width="100" height="100" />
        </pattern>
        <pattern id="previewlines030" patternUnits="userSpaceOnUse" width="100" height="100">
            <image href="https://ildikotuck.github.io/images/textures/030.jpg" x="0" y="0" width="100" height="100" />
        </pattern>
    </defs>

        <g id="lines-preview" transform="translate(1.000000, 1.000000)">
            <rect id="background" stroke="#979797" fill="#FFFFFF" x="0" y="0" width="600" height="600"></rect>
            <g id="lines16" transform="translate(443.000000, 444.000000)">
                <rect id="1-05-h" data-group="1-05-h" fill="#3A3A3A" x="0" y="115.2" width="144" height="28.8"></rect>
                <rect id="1-04-h" data-group="1-04-h" fill="#747474" x="0" y="86.4" width="144" height="28.8"></rect>
                <rect id="1-03-h" data-group="1-03-h" fill="#A8A8A8" x="0" y="57.6" width="144" height="28.8"></rect>
                <rect id="1-02-h" data-group="1-02-h" fill="#CCCBCB" x="0" y="28.8" width="144" height="28.8"></rect>
                <rect id="1-01-h" data-group="1-01-h" fill="#F2F2F2" x="2.84217094e-14" y="0" width="144" height="28.8"></rect>
            </g>
            <g id="lines15" transform="translate(371.000000, 516.000000) rotate(-90.000000) translate(-371.000000, -516.000000) translate(299.000000, 444.000000)">
                <rect id="2-05-v" data-group="2-05-v" fill="#3A3A3A" x="0" y="115.2" width="144" height="28.8"></rect>
                <rect id="2-04-v" data-group="2-04-v" fill="#747474" x="0" y="86.4" width="144" height="28.8"></rect>
                <rect id="2-03-v" data-group="2-03-v" fill="#A8A8A8" x="0" y="57.6" width="144" height="28.8"></rect>
                <rect id="2-02-v" data-group="2-02-v" fill="#CCCBCB" x="0" y="28.8" width="144" height="28.8"></rect>
                <rect id="2-01-v" data-group="2-01-v" fill="#F2F2F2" x="2.84217094e-14" y="0" width="144" height="28.8"></rect>
            </g>
            <g id="lines14" transform="translate(155.000000, 444.000000)">
                <rect id="1-05-h" data-group="1-05-h" fill="#3A3A3A" x="0" y="115.2" width="144" height="28.8"></rect>
                <rect id="1-04-h" data-group="1-04-h" fill="#747474" x="0" y="86.4" width="144" height="28.8"></rect>
                <rect id="1-03-h" data-group="1-03-h" fill="#A8A8A8" x="0" y="57.6" width="144" height="28.8"></rect>
                <rect id="1-02-h" data-group="1-02-h" fill="#CCCBCB" x="0" y="28.8" width="144" height="28.8"></rect>
                <rect id="1-01-h" data-group="1-01-h" fill="#F2F2F2" x="2.84217094e-14" y="0" width="144" height="28.8"></rect>
            </g>
            <g id="lines13" transform="translate(83.000000, 516.000000) rotate(-90.000000) translate(-83.000000, -516.000000) translate(11.000000, 444.000000)">
                <rect id="2-05-v" data-group="2-05-v" fill="#3A3A3A" x="0" y="115.2" width="144" height="28.8"></rect>
                <rect id="2-04-v" data-group="2-04-v" fill="#747474" x="0" y="86.4" width="144" height="28.8"></rect>
                <rect id="2-03-v" data-group="2-03-v" fill="#A8A8A8" x="0" y="57.6" width="144" height="28.8"></rect>
                <rect id="2-02-v" data-group="2-02-v" fill="#CCCBCB" x="0" y="28.8" width="144" height="28.8"></rect>
                <rect id="2-01-v" data-group="2-01-v" fill="#F2F2F2" x="2.84217094e-14" y="0" width="144" height="28.8"></rect>
            </g>
            <g id="lines12" transform="translate(515.000000, 372.000000) rotate(-90.000000) translate(-515.000000, -372.000000) translate(443.000000, 300.000000)">
                <rect id="2-05-v" data-group="2-05-v" fill="#3A3A3A" x="0" y="115.2" width="144" height="28.8"></rect>
                <rect id="2-04-v" data-group="2-04-v" fill="#747474" x="0" y="86.4" width="144" height="28.8"></rect>
                <rect id="2-03-v" data-group="2-03-v" fill="#A8A8A8" x="0" y="57.6" width="144" height="28.8"></rect>
                <rect id="2-02-v" data-group="2-02-v" fill="#CCCBCB" x="0" y="28.8" width="144" height="28.8"></rect>
                <rect id="2-01-v" data-group="2-01-v" fill="#F2F2F2" x="2.84217094e-14" y="0" width="144" height="28.8"></rect>
            </g>
            <g id="lines11" transform="translate(299.000000, 300.000000)">
                <rect id="1-05-h" data-group="1-05-h" fill="#3A3A3A" x="0" y="115.2" width="144" height="28.8"></rect>
                <rect id="1-04-h" data-group="1-04-h" fill="#747474" x="0" y="86.4" width="144" height="28.8"></rect>
                <rect id="1-03-h" data-group="1-03-h" fill="#A8A8A8" x="0" y="57.6" width="144" height="28.8"></rect>
                <rect id="1-02-h" data-group="1-02-h" fill="#CCCBCB" x="0" y="28.8" width="144" height="28.8"></rect>
                <rect id="1-01-h" data-group="1-01-h" fill="#F2F2F2" x="2.84217094e-14" y="0" width="144" height="28.8"></rect>
            </g>
            <g id="lines10" transform="translate(227.000000, 372.000000) rotate(-90.000000) translate(-227.000000, -372.000000) translate(155.000000, 300.000000)">
                <rect id="2-05-v" data-group="2-05-v" fill="#3A3A3A" x="0" y="115.2" width="144" height="28.8"></rect>
                <rect id="2-04-v" data-group="2-04-v" fill="#747474" x="0" y="86.4" width="144" height="28.8"></rect>
                <rect id="2-03-v" data-group="2-03-v" fill="#A8A8A8" x="0" y="57.6" width="144" height="28.8"></rect>
                <rect id="2-02-v" data-group="2-02-v" fill="#CCCBCB" x="0" y="28.8" width="144" height="28.8"></rect>
                <rect id="2-01-v" data-group="2-01-v" fill="#F2F2F2" x="2.84217094e-14" y="0" width="144" height="28.8"></rect>
            </g>
            <g id="lines9" transform="translate(11.000000, 300.000000)">
                <rect id="1-05-h" data-group="1-05-h" fill="#3A3A3A" x="0" y="115.2" width="144" height="28.8"></rect>
                <rect id="1-04-h" data-group="1-04-h" fill="#747474" x="0" y="86.4" width="144" height="28.8"></rect>
                <rect id="1-03-h" data-group="1-03-h" fill="#A8A8A8" x="0" y="57.6" width="144" height="28.8"></rect>
                <rect id="1-02-h" data-group="1-02-h" fill="#CCCBCB" x="0" y="28.8" width="144" height="28.8"></rect>
                <rect id="1-01-h" data-group="1-01-h" fill="#F2F2F2" x="2.84217094e-14" y="0" width="144" height="28.8"></rect>
            </g>
            <g id="lines8" transform="translate(443.000000, 156.000000)">
                <rect id="1-05-h" data-group="1-05-h" fill="#3A3A3A" x="0" y="115.2" width="144" height="28.8"></rect>
                <rect id="1-04-h" data-group="1-04-h" fill="#747474" x="0" y="86.4" width="144" height="28.8"></rect>
                <rect id="1-03-h" data-group="1-03-h" fill="#A8A8A8" x="0" y="57.6" width="144" height="28.8"></rect>
                <rect id="1-02-h" data-group="1-02-h" fill="#CCCBCB" x="0" y="28.8" width="144" height="28.8"></rect>
                <rect id="1-01-h" data-group="1-01-h" fill="#F2F2F2" x="2.84217094e-14" y="0" width="144" height="28.8"></rect>
            </g>
            <g id="lines7" transform="translate(371.000000, 228.000000) rotate(-90.000000) translate(-371.000000, -228.000000) translate(299.000000, 156.000000)">
                <rect id="2-05-v" data-group="2-05-v" fill="#3A3A3A" x="0" y="115.2" width="144" height="28.8"></rect>
                <rect id="2-04-v" data-group="2-04-v" fill="#747474" x="0" y="86.4" width="144" height="28.8"></rect>
                <rect id="2-03-v" data-group="2-03-v" fill="#A8A8A8" x="0" y="57.6" width="144" height="28.8"></rect>
                <rect id="2-02-v" data-group="2-02-v" fill="#CCCBCB" x="0" y="28.8" width="144" height="28.8"></rect>
                <rect id="2-01-v" data-group="2-01-v" fill="#F2F2F2" x="2.84217094e-14" y="0" width="144" height="28.8"></rect>
            </g>
            <g id="lines6" transform="translate(155.000000, 156.000000)">
                <rect id="1-05-h" data-group="1-05-h" fill="#3A3A3A" x="0" y="115.2" width="144" height="28.8"></rect>
                <rect id="1-04-h" data-group="1-04-h" fill="#747474" x="0" y="86.4" width="144" height="28.8"></rect>
                <rect id="1-03-h" data-group="1-03-h" fill="#A8A8A8" x="0" y="57.6" width="144" height="28.8"></rect>
                <rect id="1-02-h" data-group="1-02-h" fill="#CCCBCB" x="0" y="28.8" width="144" height="28.8"></rect>
                <rect id="1-01-h" data-group="1-01-h" fill="#F2F2F2" x="2.84217094e-14" y="0" width="144" height="28.8"></rect>
            </g>
            <g id="lines5" transform="translate(83.000000, 228.000000) rotate(-90.000000) translate(-83.000000, -228.000000) translate(11.000000, 156.000000)">
                <rect id="2-05-v" data-group="2-05-v" fill="#3A3A3A" x="0" y="115.2" width="144" height="28.8"></rect>
                <rect id="2-04-v" data-group="2-04-v" fill="#747474" x="0" y="86.4" width="144" height="28.8"></rect>
                <rect id="2-03-v" data-group="2-03-v" fill="#A8A8A8" x="0" y="57.6" width="144" height="28.8"></rect>
                <rect id="2-02-v" data-group="2-02-v" fill="#CCCBCB" x="0" y="28.8" width="144" height="28.8"></rect>
                <rect id="2-01-v" data-group="2-01-v" fill="#F2F2F2" x="2.84217094e-14" y="0" width="144" height="28.8"></rect>
            </g>
            <g id="lines4" transform="translate(515.000000, 84.000000) rotate(-90.000000) translate(-515.000000, -84.000000) translate(443.000000, 12.000000)">
                <rect id="2-05-v" data-group="2-05-v" fill="#3A3A3A" x="0" y="115.2" width="144" height="28.8"></rect>
                <rect id="2-04-v" data-group="2-04-v" fill="#747474" x="0" y="86.4" width="144" height="28.8"></rect>
                <rect id="2-03-v" data-group="2-03-v" fill="#A8A8A8" x="0" y="57.6" width="144" height="28.8"></rect>
                <rect id="2-02-v" data-group="2-02-v" fill="#CCCBCB" x="0" y="28.8" width="144" height="28.8"></rect>
                <rect id="2-01-v" data-group="2-01-v" fill="#F2F2F2" x="2.84217094e-14" y="0" width="144" height="28.8"></rect>
            </g>
            <g id="lines3" transform="translate(299.000000, 12.000000)">
                <rect id="1-05-h" data-group="1-05-h" fill="#3A3A3A" x="0" y="115.2" width="144" height="28.8"></rect>
                <rect id="1-04-h" data-group="1-04-h" fill="#747474" x="0" y="86.4" width="144" height="28.8"></rect>
                <rect id="1-03-h" data-group="1-03-h" fill="#A8A8A8" x="0" y="57.6" width="144" height="28.8"></rect>
                <rect id="1-02-h" data-group="1-02-h" fill="#CCCBCB" x="0" y="28.8" width="144" height="28.8"></rect>
                <rect id="1-01-h" data-group="1-01-h" fill="#F2F2F2" x="2.84217094e-14" y="0" width="144" height="28.8"></rect>
            </g>
            <g id="lines2" transform="translate(227.000000, 84.000000) rotate(-90.000000) translate(-227.000000, -84.000000) translate(155.000000, 12.000000)">
                <rect id="2-05-v" data-group="2-05-v" fill="#3A3A3A" x="0" y="115.2" width="144" height="28.8"></rect>
                <rect id="2-04-v" data-group="2-04-v" fill="#747474" x="0" y="86.4" width="144" height="28.8"></rect>
                <rect id="2-03-v" data-group="2-03-v" fill="#A8A8A8" x="0" y="57.6" width="144" height="28.8"></rect>
                <rect id="2-02-v" data-group="2-02-v" fill="#CCCBCB" x="0" y="28.8" width="144" height="28.8"></rect>
                <rect id="2-01-v" data-group="2-01-v" fill="#F2F2F2" x="2.84217094e-14" y="0" width="144" height="28.8"></rect>
            </g>
            <g id="lines1" transform="translate(11.000000, 12.000000)">
                <rect id="1-05-h" data-group="1-05-h" fill="#3A3A3A" x="0" y="115.2" width="144" height="28.8"></rect>
                <rect id="1-04-h" data-group="1-04-h" fill="#747474" x="0" y="86.4" width="144" height="28.8"></rect>
                <rect id="1-03-h" data-group="1-03-h" fill="#A8A8A8" x="0" y="57.6" width="144" height="28.8"></rect>
                <rect id="1-02-h" data-group="1-02-h" fill="#CCCBCB" x="0" y="28.8" width="144" height="28.8"></rect>
                <rect id="1-01-h" data-group="1-01-h" fill="#F2F2F2" x="2.84217094e-14" y="0" width="144" height="28.8"></rect>
            </g>
        </g>
    
</svg>