<?xml version="1.0" encoding="UTF-8"?>
<svg width="602px" height="602px" viewBox="0 0 602 602" version="1.1" xmlns="http://www.w3.org/2000/svg" xmlns:xlink="http://www.w3.org/1999/xlink">
    <!-- Generator: Sketch 63.1 (92452) - https://sketch.com -->
    <title>lines-preview</title>
    <desc>Created with Sketch.</desc>
    <g id="Page-1" stroke="none" stroke-width="1" fill="none" fill-rule="evenodd">
        <g id="lines-preview" transform="translate(1.000000, 1.000000)">
            <rect id="background" stroke="#979797" fill="#FFFFFF" x="0" y="0" width="600" height="600"></rect>
            <g id="lines16" transform="translate(443.000000, 444.000000)">
                <rect id="1-05-h" fill="#3A3A3A" x="0" y="115.2" width="144" height="28.8"></rect>
                <rect id="1-04-h" fill="#747474" x="0" y="86.4" width="144" height="28.8"></rect>
                <rect id="1-03-h" fill="#A8A8A8" x="0" y="57.6" width="144" height="28.8"></rect>
                <rect id="1-02-h" fill="#CCCBCB" x="0" y="28.8" width="144" height="28.8"></rect>
                <rect id="1-01-h" fill="#F2F2F2" x="2.84217094e-14" y="0" width="144" height="28.8"></rect>
            </g>
            <g id="lines15" transform="translate(371.000000, 516.000000) rotate(-90.000000) translate(-371.000000, -516.000000) translate(299.000000, 444.000000)">
                <rect id="2-05-v" fill="#3A3A3A" x="0" y="115.2" width="144" height="28.8"></rect>
                <rect id="2-04-v" fill="#747474" x="0" y="86.4" width="144" height="28.8"></rect>
                <rect id="2-03-v" fill="#A8A8A8" x="0" y="57.6" width="144" height="28.8"></rect>
                <rect id="2-02-v" fill="#CCCBCB" x="0" y="28.8" width="144" height="28.8"></rect>
                <rect id="2-01-v" fill="#F2F2F2" x="2.84217094e-14" y="0" width="144" height="28.8"></rect>
            </g>
            <g id="lines14" transform="translate(155.000000, 444.000000)">
                <rect id="1-05-h" fill="#3A3A3A" x="0" y="115.2" width="144" height="28.8"></rect>
                <rect id="1-04-h" fill="#747474" x="0" y="86.4" width="144" height="28.8"></rect>
                <rect id="1-03-h" fill="#A8A8A8" x="0" y="57.6" width="144" height="28.8"></rect>
                <rect id="1-02-h" fill="#CCCBCB" x="0" y="28.8" width="144" height="28.8"></rect>
                <rect id="1-01-h" fill="#F2F2F2" x="2.84217094e-14" y="0" width="144" height="28.8"></rect>
            </g>
            <g id="lines13" transform="translate(83.000000, 516.000000) rotate(-90.000000) translate(-83.000000, -516.000000) translate(11.000000, 444.000000)">
                <rect id="2-05-v" fill="#3A3A3A" x="0" y="115.2" width="144" height="28.8"></rect>
                <rect id="2-04-v" fill="#747474" x="0" y="86.4" width="144" height="28.8"></rect>
                <rect id="2-03-v" fill="#A8A8A8" x="0" y="57.6" width="144" height="28.8"></rect>
                <rect id="2-02-v" fill="#CCCBCB" x="0" y="28.8" width="144" height="28.8"></rect>
                <rect id="2-01-v" fill="#F2F2F2" x="2.84217094e-14" y="0" width="144" height="28.8"></rect>
            </g>
            <g id="lines12" transform="translate(515.000000, 372.000000) rotate(-90.000000) translate(-515.000000, -372.000000) translate(443.000000, 300.000000)">
                <rect id="2-05-v" fill="#3A3A3A" x="0" y="115.2" width="144" height="28.8"></rect>
                <rect id="2-04-v" fill="#747474" x="0" y="86.4" width="144" height="28.8"></rect>
                <rect id="2-03-v" fill="#A8A8A8" x="0" y="57.6" width="144" height="28.8"></rect>
                <rect id="2-02-v" fill="#CCCBCB" x="0" y="28.8" width="144" height="28.8"></rect>
                <rect id="2-01-v" fill="#F2F2F2" x="2.84217094e-14" y="0" width="144" height="28.8"></rect>
            </g>
            <g id="lines11" transform="translate(299.000000, 300.000000)">
                <rect id="1-05-h" fill="#3A3A3A" x="0" y="115.2" width="144" height="28.8"></rect>
                <rect id="1-04-h" fill="#747474" x="0" y="86.4" width="144" height="28.8"></rect>
                <rect id="1-03-h" fill="#A8A8A8" x="0" y="57.6" width="144" height="28.8"></rect>
                <rect id="1-02-h" fill="#CCCBCB" x="0" y="28.8" width="144" height="28.8"></rect>
                <rect id="1-01-h" fill="#F2F2F2" x="2.84217094e-14" y="0" width="144" height="28.8"></rect>
            </g>
            <g id="lines10" transform="translate(227.000000, 372.000000) rotate(-90.000000) translate(-227.000000, -372.000000) translate(155.000000, 300.000000)">
                <rect id="2-05-v" fill="#3A3A3A" x="0" y="115.2" width="144" height="28.8"></rect>
                <rect id="2-04-v" fill="#747474" x="0" y="86.4" width="144" height="28.8"></rect>
                <rect id="2-03-v" fill="#A8A8A8" x="0" y="57.6" width="144" height="28.8"></rect>
                <rect id="2-02-v" fill="#CCCBCB" x="0" y="28.8" width="144" height="28.8"></rect>
                <rect id="2-01-v" fill="#F2F2F2" x="2.84217094e-14" y="0" width="144" height="28.8"></rect>
            </g>
            <g id="lines9" transform="translate(11.000000, 300.000000)">
                <rect id="1-05-h" fill="#3A3A3A" x="0" y="115.2" width="144" height="28.8"></rect>
                <rect id="1-04-h" fill="#747474" x="0" y="86.4" width="144" height="28.8"></rect>
                <rect id="1-03-h" fill="#A8A8A8" x="0" y="57.6" width="144" height="28.8"></rect>
                <rect id="1-02-h" fill="#CCCBCB" x="0" y="28.8" width="144" height="28.8"></rect>
                <rect id="1-01-h" fill="#F2F2F2" x="2.84217094e-14" y="0" width="144" height="28.8"></rect>
            </g>
            <g id="lines8" transform="translate(443.000000, 156.000000)">
                <rect id="1-05-h" fill="#3A3A3A" x="0" y="115.2" width="144" height="28.8"></rect>
                <rect id="1-04-h" fill="#747474" x="0" y="86.4" width="144" height="28.8"></rect>
                <rect id="1-03-h" fill="#A8A8A8" x="0" y="57.6" width="144" height="28.8"></rect>
                <rect id="1-02-h" fill="#CCCBCB" x="0" y="28.8" width="144" height="28.8"></rect>
                <rect id="1-01-h" fill="#F2F2F2" x="2.84217094e-14" y="0" width="144" height="28.8"></rect>
            </g>
            <g id="lines7" transform="translate(371.000000, 228.000000) rotate(-90.000000) translate(-371.000000, -228.000000) translate(299.000000, 156.000000)">
                <rect id="2-05-v" fill="#3A3A3A" x="0" y="115.2" width="144" height="28.8"></rect>
                <rect id="2-04-v" fill="#747474" x="0" y="86.4" width="144" height="28.8"></rect>
                <rect id="2-03-v" fill="#A8A8A8" x="0" y="57.6" width="144" height="28.8"></rect>
                <rect id="2-02-v" fill="#CCCBCB" x="0" y="28.8" width="144" height="28.8"></rect>
                <rect id="2-01-v" fill="#F2F2F2" x="2.84217094e-14" y="0" width="144" height="28.8"></rect>
            </g>
            <g id="lines6" transform="translate(155.000000, 156.000000)">
                <rect id="1-05-h" fill="#3A3A3A" x="0" y="115.2" width="144" height="28.8"></rect>
                <rect id="1-04-h" fill="#747474" x="0" y="86.4" width="144" height="28.8"></rect>
                <rect id="1-03-h" fill="#A8A8A8" x="0" y="57.6" width="144" height="28.8"></rect>
                <rect id="1-02-h" fill="#CCCBCB" x="0" y="28.8" width="144" height="28.8"></rect>
                <rect id="1-01-h" fill="#F2F2F2" x="2.84217094e-14" y="0" width="144" height="28.8"></rect>
            </g>
            <g id="lines5" transform="translate(83.000000, 228.000000) rotate(-90.000000) translate(-83.000000, -228.000000) translate(11.000000, 156.000000)">
                <rect id="2-05-v" fill="#3A3A3A" x="0" y="115.2" width="144" height="28.8"></rect>
                <rect id="2-04-v" fill="#747474" x="0" y="86.4" width="144" height="28.8"></rect>
                <rect id="2-03-v" fill="#A8A8A8" x="0" y="57.6" width="144" height="28.8"></rect>
                <rect id="2-02-v" fill="#CCCBCB" x="0" y="28.8" width="144" height="28.8"></rect>
                <rect id="2-01-v" fill="#F2F2F2" x="2.84217094e-14" y="0" width="144" height="28.8"></rect>
            </g>
            <g id="lines4" transform="translate(515.000000, 84.000000) rotate(-90.000000) translate(-515.000000, -84.000000) translate(443.000000, 12.000000)">
                <rect id="2-05-v" fill="#3A3A3A" x="0" y="115.2" width="144" height="28.8"></rect>
                <rect id="2-04-v" fill="#747474" x="0" y="86.4" width="144" height="28.8"></rect>
                <rect id="2-03-v" fill="#A8A8A8" x="0" y="57.6" width="144" height="28.8"></rect>
                <rect id="2-02-v" fill="#CCCBCB" x="0" y="28.8" width="144" height="28.8"></rect>
                <rect id="2-01-v" fill="#F2F2F2" x="2.84217094e-14" y="0" width="144" height="28.8"></rect>
            </g>
            <g id="lines3" transform="translate(299.000000, 12.000000)">
                <rect id="1-05-h" fill="#3A3A3A" x="0" y="115.2" width="144" height="28.8"></rect>
                <rect id="1-04-h" fill="#747474" x="0" y="86.4" width="144" height="28.8"></rect>
                <rect id="1-03-h" fill="#A8A8A8" x="0" y="57.6" width="144" height="28.8"></rect>
                <rect id="1-02-h" fill="#CCCBCB" x="0" y="28.8" width="144" height="28.8"></rect>
                <rect id="1-01-h" fill="#F2F2F2" x="2.84217094e-14" y="0" width="144" height="28.8"></rect>
            </g>
            <g id="lines2" transform="translate(227.000000, 84.000000) rotate(-90.000000) translate(-227.000000, -84.000000) translate(155.000000, 12.000000)">
                <rect id="2-05-v" fill="#3A3A3A" x="0" y="115.2" width="144" height="28.8"></rect>
                <rect id="2-04-v" fill="#747474" x="0" y="86.4" width="144" height="28.8"></rect>
                <rect id="2-03-v" fill="#A8A8A8" x="0" y="57.6" width="144" height="28.8"></rect>
                <rect id="2-02-v" fill="#CCCBCB" x="0" y="28.8" width="144" height="28.8"></rect>
                <rect id="2-01-v" fill="#F2F2F2" x="2.84217094e-14" y="0" width="144" height="28.8"></rect>
            </g>
            <g id="lines1" transform="translate(11.000000, 12.000000)">
                <rect id="1-05-h" fill="#3A3A3A" x="0" y="115.2" width="144" height="28.8"></rect>
                <rect id="1-04-h" fill="#747474" x="0" y="86.4" width="144" height="28.8"></rect>
                <rect id="1-03-h" fill="#A8A8A8" x="0" y="57.6" width="144" height="28.8"></rect>
                <rect id="1-02-h" fill="#CCCBCB" x="0" y="28.8" width="144" height="28.8"></rect>
                <rect id="1-01-h" fill="#F2F2F2" x="2.84217094e-14" y="0" width="144" height="28.8"></rect>
            </g>
        </g>
    </g>
</svg>