<svg id="lines" xmlns="http://www.w3.org/2000/svg" width="841" height="420" viewBox="0 0 841 420">
  <defs>
    <pattern id="texture1" patternUnits="userSpaceOnUse" width="450" height="450">
      <image href="https://ildikotuck.github.io/images/textures/001.png" x="0" y="0" width="450" height="450" />
    </pattern>
    <pattern id="texture2" patternUnits="userSpaceOnUse" width="450" height="450">
      <image href="https://ildikotuck.github.io/images/textures/002.png" x="0" y="0" width="450" height="450" />
    </pattern>
    <pattern id="texture3" patternUnits="userSpaceOnUse" width="450" height="450">
      <image href="https://ildikotuck.github.io/images/textures/003.png" x="0" y="0" width="450" height="450" />
    </pattern>
    <pattern id="texture4" patternUnits="userSpaceOnUse" width="450" height="450">
      <image href="https://ildikotuck.github.io/images/textures/004.png" x="0" y="0" width="450" height="450" />
    </pattern>
    <pattern id="texture5" patternUnits="userSpaceOnUse" width="450" height="450">
      <image href="https://ildikotuck.github.io/images/textures/005.png" x="0" y="0" width="450" height="450" />
    </pattern>
    <pattern id="texture6" patternUnits="userSpaceOnUse" width="450" height="450">
      <image href="https://ildikotuck.github.io/images/textures/006.png" x="0" y="0" width="450" height="450" />
    </pattern>
  </defs>

  <path id="hor-1" fill="#EFEFEF" d="M145,80H565v84H145V80Zm0,0H565v84H145V80Z" transform="translate(-145 -80)"/>
  <path id="hor-2" fill="#D2D2D2" d="M145,164H565v84H145V164Zm0,0H565v84H145V164Z" transform="translate(-145 -80)"/>
  <path id="hor-3" fill="#B2b2b2" d="M145,248H565v84H145V248Zm0,0H565v84H145V248Z" transform="translate(-145 -80)"/>
  <path id="hor-4" fill="#8f8f8f" d="M145,332H565v84H145V332Zm0,0H565v84H145V332Z" transform="translate(-145 -80)"/>
  <path id="hor-5" fill="#4B4B4B" d="M145,416H565v84H145V416Zm0,0H565v84H145V416Z" transform="translate(-145 -80)"/>
  <path id="ver-1" fill="#EFEFEF" d="M566,80h84V500H566V80Zm0,0h84V500H566V80Z" transform="translate(-145 -80)"/>
  <path id="ver-2" fill="#d2d2d2" d="M650,80h84V500H650V80Zm0,0h84V500H650V80Z" transform="translate(-145 -80)"/>
  <path id="ver-3" fill="#b2b2b2" d="M734,80h84V500H734V80Zm0,0h84V500H734V80Z" transform="translate(-145 -80)"/>
  <path id="ver-4" fill="#8f8f8f" d="M818,80h84V500H818V80Zm0,0h84V500H818V80Z" transform="translate(-145 -80)"/>
  <path id="ver-5" fill="#4B4B4B" d="M902,80h84V500H902V80Zm0,0h84V500H902V80Z" transform="translate(-145 -80)"/>
</svg>
