<svg id="lines" xmlns="http://www.w3.org/2000/svg" width="841" height="420" viewBox="0 0 841 420">
  <defs>
  
  </defs>
  <path id="hor-1" class="cls-1" d="M145,80H565v84H145V80Zm0,0H565v84H145V80Z" transform="translate(-145 -80)"/>
  <path id="hor-2" class="cls-2" d="M145,164H565v84H145V164Zm0,0H565v84H145V164Z" transform="translate(-145 -80)"/>
  <path id="hor-3" class="cls-3" d="M145,248H565v84H145V248Zm0,0H565v84H145V248Z" transform="translate(-145 -80)"/>
  <path id="hor-4" class="cls-4" d="M145,332H565v84H145V332Zm0,0H565v84H145V332Z" transform="translate(-145 -80)"/>
  <path id="hor-5" class="cls-5" d="M145,416H565v84H145V416Zm0,0H565v84H145V416Z" transform="translate(-145 -80)"/>
  <path id="ver-1" class="cls-1" d="M566,80h84V500H566V80Zm0,0h84V500H566V80Z" transform="translate(-145 -80)"/>
  <path id="ver-2" class="cls-2" d="M650,80h84V500H650V80Zm0,0h84V500H650V80Z" transform="translate(-145 -80)"/>
  <path id="ver-3" class="cls-3" d="M734,80h84V500H734V80Zm0,0h84V500H734V80Z" transform="translate(-145 -80)"/>
  <path id="ver-4" class="cls-4" d="M818,80h84V500H818V80Zm0,0h84V500H818V80Z" transform="translate(-145 -80)"/>
  <path id="ver-5" class="cls-5" d="M902,80h84V500H902V80Zm0,0h84V500H902V80Z" transform="translate(-145 -80)"/>
</svg>
