<?xml version="1.0" encoding="UTF-8"?>
<svg width="51px" height="50px" viewBox="0 0 51 50" version="1.1" xmlns="http://www.w3.org/2000/svg" xmlns:xlink="http://www.w3.org/1999/xlink">
    <!-- Generator: Sketch 63.1 (92452) - https://sketch.com -->
    <title>Group 2</title>
    <desc>Created with Sketch.</desc>
    <g id="Page-1" stroke="none" stroke-width="1" fill="none" fill-rule="evenodd">
        <g id="Group-2" fill-rule="nonzero">
            <g id="2022389" fill="#000000">
                <g id="Group" transform="translate(17.704918, 24.000000) scale(-1, 1) rotate(-180.000000) translate(-17.704918, -24.000000) translate(0.000000, -0.000000)">
                    <path d="M34.9419652,47.9250117 C34.8392618,47.846274 32.4770846,44.5992814 29.70029,40.729886 C23.8461985,32.5636619 19.4641885,26.2421497 16.9574658,22.3577566 C16.0863892,21.0042181 15.1011977,19.3882206 15.1011977,19.3094829 C15.1011977,19.2982347 15.1658628,19.2682393 15.2457431,19.2419934 C16.4515567,18.8595532 17.9578726,18.0121856 19.2207435,17.0035932 C19.4908153,16.7898766 19.7152412,16.6211529 19.719045,16.6284112 C19.7266527,16.6361506 19.8407675,16.8273707 19.9777053,17.0523356 C22.3360788,20.9554757 27.3875625,30.9101703 34.1659843,45.0042181 C34.835458,46.3952507 35.3946208,47.5988127 35.4022284,47.673801 C35.4212475,47.7862834 35.4060322,47.8275269 35.3261518,47.9062646 C35.2044293,48.0224965 35.078903,48.0299953 34.9419652,47.9250117 Z" id="Path"></path>
                    <path d="M14.5952885,18.3946258 C14.5116043,18.1209186 13.5150013,15.8937666 12.6667477,14.0902984 C11.1870585,10.9407905 10.9055752,10.3371348 10.7267953,9.90595219 C10.624092,9.65474145 10.5366039,9.44477425 10.5366039,9.43727543 C10.5366039,9.4297766 10.5746422,9.42227777 10.624092,9.42227777 C10.8066757,9.42227777 11.2973695,9.26105296 11.6967715,9.06608342 C12.2635419,8.79612561 12.7618434,8.38743946 13.1536377,7.88501797 C13.1840683,7.84377441 14.0475373,8.96859866 15.4169154,10.8358069 C17.063973,13.0779566 18.0187339,14.3415091 18.9164373,15.4588346 C19.1903129,15.7962818 19.2017244,15.8262771 19.1066287,15.9050148 C17.8589731,16.9061084 17.2009108,17.3447899 16.2461499,17.8134666 C15.6527528,18.1059209 15.006102,18.3721294 14.717011,18.4396188 C14.6409345,18.4583659 14.6105038,18.4471176 14.5952885,18.3946258 Z" id="Path"></path>
                    <path d="M8.96942673,8.99109514 C7.94239314,8.82612092 7.03327821,8.27870645 6.3828236,7.43508827 C6.14698626,7.13138572 5.85028766,6.53147946 5.7475843,6.16028746 C5.39763212,4.88548664 5.22265602,4.37556632 4.91074212,3.74566474 C4.61784735,3.15700672 4.2869143,2.69957819 3.86088555,2.27589439 C3.06208164,1.484768 2.11112461,1.01609124 0.627631642,0.689892204 C0.251052657,0.603655679 0.117918672,0.558662709 0.0684689063,0.498672082 C-0.030430625,0.37869083 -0.0190191407,0.213716607 0.0988995314,0.097484768 L0.197799063,0 L2.03124422,0.0224964849 C4.41244063,0.0562412123 5.42425891,0.112482425 6.9229672,0.292454304 C9.627489,0.618653335 11.4989724,1.33854085 12.5830635,2.46711451 C13.0509343,2.94703953 13.3248099,3.43446337 13.5073937,4.09810967 C13.6291162,4.5292923 13.6481353,5.39165755 13.5492358,5.86033432 C13.2943793,7.07889392 12.5183984,8.06873926 11.3924653,8.61990314 C10.6469149,8.98359631 9.76442681,9.12232464 8.96942673,8.99109514 Z" id="Path"></path>
                </g>
            </g>
            <ellipse id="Oval" stroke="#000000" stroke-width="3" fill="#90FF3F" cx="35.8032787" cy="34.6229508" rx="13.6967213" ry="13.3032787"></ellipse>
        </g>
    </g>
</svg>