<?xml version="1.0" encoding="UTF-8"?>
<svg width="84px" height="82px" viewBox="0 0 84 82" version="1.1" xmlns="http://www.w3.org/2000/svg" xmlns:xlink="http://www.w3.org/1999/xlink">
    <g id="Page-1" stroke="none" stroke-width="1" fill="none" fill-rule="evenodd">
        <g id="paint" fill-rule="nonzero">
            <path d="M72.0234375,34.1947596 C75.46875,29.9733856 77.2898438,24.7088921 77.175,19.16732 C77.04375,13.0389932 74.5828125,7.28553745 70.21875,2.93377347 C66.28125,-0.977924489 59.8664062,-0.977924489 55.9289062,2.93377347 L48.2507812,10.5615845 L43.9359375,6.27501547 L26.11875,23.9917475 C23.8382812,23.0464205 21.3609375,22.5574582 18.8835937,22.5574582 C8.465625,22.5574582 0,30.9839076 0,41.3173097 L0,56.0024758 L4.921875,56.0024758 L4.921875,41.3173097 C4.921875,38.6117186 7.13671875,36.4276872 9.84375,36.4276872 C10.8773437,36.4276872 11.8617187,36.7536621 12.6820312,37.324118 L10.7953125,39.1984733 L50.859375,79 L84,46.0928409 L72.0234375,34.1947596 Z M59.4070313,6.40540541 C61.425,4.4006602 64.70625,4.4006602 66.7242188,6.40540541 C73.36875,13.0063957 74.0085938,23.519084 68.5125,30.706829 L51.7289063,14.0332164 L59.4070313,6.40540541 Z M9.86015625,31.5380648 C9.56484375,31.5380648 9.26953125,31.5543635 8.97421875,31.586961 C11.5007813,29.0443573 15.0117188,27.4633794 18.9,27.4633794 C20.0484375,27.4633794 21.1640625,27.5937693 22.246875,27.8545492 L16.2257813,33.8361873 C14.4539063,32.3693006 12.20625,31.5380648 9.86015625,31.5380648 Z M17.7679688,39.1984733 L43.9359375,13.2182793 L65.034375,34.1784609 C61.884375,36.5743759 58.078125,37.894574 54.0421875,37.9434702 C50.3835938,37.9923664 46.8726562,36.9818444 43.8539062,35.0585929 C44.1,33.5591087 43.640625,31.9781308 42.4757812,30.8209202 C40.55625,28.9139674 37.4390625,28.9139674 35.503125,30.8209202 C33.5835938,32.7278729 33.5835938,35.8246338 35.503125,37.7478853 C36.9140625,39.1495771 38.9648438,39.5244481 40.7203125,38.8724985 C44.559375,41.4639983 49.0710938,42.8493914 53.8125,42.8493914 C53.9109375,42.8493914 54.009375,42.8493914 54.1078125,42.8493914 C59.4398438,42.7841964 64.4765625,40.9587374 68.5453125,37.6663916 L77.04375,46.1091397 L50.8757813,72.0893336 L17.7679688,39.1984733 Z" id="Shape" fill="#000000"></path>
            <circle id="Oval" stroke="#000000" stroke-width="4" fill="#90FF3F" cx="53.5" cy="51.5" r="28.5"></circle>
        </g>
    </g>
</svg>