<svg id="pinwheels" xmlns="http://www.w3.org/2000/svg" width="898" height="444" viewBox="0 0 898 444">
  <defs>
    <pattern id="texture1" patternUnits="userSpaceOnUse" width="450" height="450">
      <image href="https://ildikotuck.github.io/images/textures/001.png" x="0" y="0" width="450" height="450" />
    </pattern>
    <pattern id="texture2" patternUnits="userSpaceOnUse" width="450" height="450">
      <image href="https://ildikotuck.github.io/images/textures/002.png" x="0" y="0" width="450" height="450" />
    </pattern>
    <pattern id="texture3" patternUnits="userSpaceOnUse" width="450" height="450">
      <image href="https://ildikotuck.github.io/images/textures/003.png" x="0" y="0" width="450" height="450" />
    </pattern>
    <pattern id="texture4" patternUnits="userSpaceOnUse" width="450" height="450">
      <image href="https://ildikotuck.github.io/images/textures/004.png" x="0" y="0" width="450" height="450" />
    </pattern>
    <pattern id="texture5" patternUnits="userSpaceOnUse" width="450" height="450">
      <image href="https://ildikotuck.github.io/images/textures/005.png" x="0" y="0" width="450" height="450" />
    </pattern>
    <pattern id="texture6" patternUnits="userSpaceOnUse" width="450" height="450">
      <image href="https://ildikotuck.github.io/images/textures/006.png" x="0" y="0" width="450" height="450" />
    </pattern>
  </defs>

  <rect id="background1" class="bg" x="12" y="12" width="420" height="420"/>
  <path id="left-top-bottom1" class="cls-2" fill="#EFEFEF" d="M355,290H145V80" transform="translate(-133 -68)"/>
  <path id="left-top-top1" class="darks" fill="#4B4B4B" d="M144.861,80.14l210-.279,0.279,210" transform="translate(-133 -68)"/>
  <path id="left-bottom-bottom1" class="cls-2" fill="#D2D2D2" d="M355,290V500H145" transform="translate(-133 -68)"/>
  <path id="left-bottom-top1" class="darks" fill="#4B4B4B" d="M145,500V290H355" transform="translate(-133 -68)"/>
  <path id="right-bottom-top1" class="cls-2" fill="#B2b2b2" d="M355,290H565V500" transform="translate(-133 -68)"/>
  <path id="right-bottom-bottom1" class="darks" fill="#4B4B4B" d="M565,500H355V290" transform="translate(-133 -68)"/>
  <path id="right-top-top1" class="cls-2" fill="#8f8f8f" d="M355,290V80H565" transform="translate(-133 -68)"/>
  <path id="right-top-bottom1" class="darks" fill="#4B4B4B" d="M565,80V290H355" transform="translate(-133 -68)"/>
  
  <rect id="background2" class="bg" x="466" y="12" width="420" height="420"/>
  <path id="left-top-bottom2" class="cls-2" fill="#EFEFEF" d="M809,290H599V80" transform="translate(-133 -68)"/>
  <path id="left-top-top2" class="darks" fill="#4B4B4B" d="M598.861,80.14l210-.279,0.279,210" transform="translate(-133 -68)"/>
  <path id="left-bottom-bottom2" class="cls-3" fill="#D2D2D2" d="M809,290V500H599" transform="translate(-133 -68)"/>
  <path id="left-bottom-top2" class="darks" fill="#4B4B4B" d="M599,500V290H809" transform="translate(-133 -68)"/>
  <path id="right-bottom-top2" class="cls-2" fill="#B2b2b2" d="M809,290h210V500" transform="translate(-133 -68)"/>
  <path id="right-bottom-bottom2" class="darks" fill="#4B4B4B" d="M1019,500H809V290" transform="translate(-133 -68)"/>
  <path id="right-top-top2" class="cls-2" fill="#8f8f8f" d="M809,290V80h210" transform="translate(-133 -68)"/>
  <path id="right-top-bottom2" class="darks" fill="#4B4B4B" d="M1019,80V290H809" transform="translate(-133 -68)"/>
</svg>
