<?xml version="1.0" encoding="UTF-8"?>
<svg width="602px" height="602px" viewBox="0 0 602 602" version="1.1" xmlns="http://www.w3.org/2000/svg" xmlns:xlink="http://www.w3.org/1999/xlink">

    <g id="Page-1" stroke="none" stroke-width="1" fill="none" fill-rule="evenodd">
        <g id="Group-6" transform="translate(1.000000, 1.000000)">
            <g id="Group-4-Copy" fill="#FFFFFF" stroke="#979797">
                <rect id="Rectangle" x="0" y="0" width="600" height="600"></rect>
            </g>
            <g id="Group-5" transform="translate(35.000000, 36.000000)">

                <g id="rect-1">
                    <rect id="Rectangle" data-group="bg1" fill="#D8D8D8" x="0" y="0" width="157" height="157"></rect>
                    <rect id="Rectangle-Copy-5" data-group="rect-top1" fill="#959595" transform="translate(78.500000, 39.500000) rotate(-45.000000) translate(-78.500000, -39.500000) " x="51" y="12" width="55" height="55"></rect>
                    <rect id="Rectangle-Copy-8" data-group="rect-rig1" fill="#EFEFEF" transform="translate(117.500000, 78.500000) rotate(-45.000000) translate(-117.500000, -78.500000) " x="90" y="51" width="55" height="55"></rect>
                    <rect id="Rectangle-Copy-6" data-group="rect-lef1" fill="#EFEFEF" transform="translate(39.500000, 78.500000) rotate(-45.000000) translate(-39.500000, -78.500000) " x="12" y="51" width="55" height="55"></rect>
                    <rect id="Rectangle-Copy-7" data-group="rect-bot1" fill="#959595" transform="translate(78.500000, 117.500000) rotate(-45.000000) translate(-78.500000, -117.500000) " x="51" y="90" width="55" height="55"></rect>
                </g>

                <g id="rect-2" transform="translate(182.000000, 0.000000)">
                    <rect id="background2" data-group="bg2" fill="#D8D8D8" x="0" y="0" width="157" height="157"></rect>
                    <rect id="rect-top" data-group="rect-top2" fill="#EFEFEF" transform="translate(78.500000, 39.500000) rotate(-45.000000) translate(-78.500000, -39.500000) " x="51" y="12" width="55" height="55"></rect>
                    <rect id="rect-rig" data-group="rect-rig2" fill="#959595" transform="translate(117.500000, 78.500000) rotate(-45.000000) translate(-117.500000, -78.500000) " x="90" y="51" width="55" height="55"></rect>
                    <rect id="rect-lef" data-group="rect-lef2" fill="#959595" transform="translate(39.500000, 78.500000) rotate(-45.000000) translate(-39.500000, -78.500000) " x="12" y="51" width="55" height="55"></rect>
                    <rect id="rect-bot" data-group="rect-bot2" fill="#EFEFEF" transform="translate(78.500000, 117.500000) rotate(-45.000000) translate(-78.500000, -117.500000) " x="51" y="90" width="55" height="55"></rect>
                </g>

                <g id="rect-3" transform="translate(364.000000, 0.000000)">
                    <rect id="Rectangle" data-group="bg1" fill="#D8D8D8" x="0" y="0" width="157" height="157"></rect>
                    <rect id="Rectangle-Copy-5" data-group="rect-top1" fill="#959595" transform="translate(78.500000, 39.500000) rotate(-45.000000) translate(-78.500000, -39.500000) " x="51" y="12" width="55" height="55"></rect>
                    <rect id="Rectangle-Copy-8" data-group="rect-rig1" fill="#EFEFEF" transform="translate(117.500000, 78.500000) rotate(-45.000000) translate(-117.500000, -78.500000) " x="90" y="51" width="55" height="55"></rect>
                    <rect id="Rectangle-Copy-6" data-group="rect-lef1" fill="#EFEFEF" transform="translate(39.500000, 78.500000) rotate(-45.000000) translate(-39.500000, -78.500000) " x="12" y="51" width="55" height="55"></rect>
                    <rect id="Rectangle-Copy-7" data-group="rect-bot1" fill="#959595" transform="translate(78.500000, 117.500000) rotate(-45.000000) translate(-78.500000, -117.500000) " x="51" y="90" width="55" height="55"></rect>
                </g>

                <g id="rect-4" transform="translate(0.000000, 182.000000)">
                    <rect id="Rectangle" data-group="bg1" fill="#D8D8D8" x="0" y="0" width="157" height="157"></rect>
                    <rect id="Rectangle-Copy-5" data-group="rect-top2" fill="#EFEFEF" transform="translate(78.500000, 39.500000) rotate(-45.000000) translate(-78.500000, -39.500000) " x="51" y="12" width="55" height="55"></rect>
                    <rect id="Rectangle-Copy-8" data-group="rect-rig2" fill="#959595" transform="translate(117.500000, 78.500000) rotate(-45.000000) translate(-117.500000, -78.500000) " x="90" y="51" width="55" height="55"></rect>
                    <rect id="Rectangle-Copy-6" data-group="rect-lef2" fill="#959595" transform="translate(39.500000, 78.500000) rotate(-45.000000) translate(-39.500000, -78.500000) " x="12" y="51" width="55" height="55"></rect>
                    <rect id="Rectangle-Copy-7" data-group="rect-bot2" fill="#EFEFEF" transform="translate(78.500000, 117.500000) rotate(-45.000000) translate(-78.500000, -117.500000) " x="51" y="90" width="55" height="55"></rect>
                </g>

                <g id="rect-5" transform="translate(182.000000, 182.000000)">
                    <rect id="Rectangle" data-group="bg2" fill="#D8D8D8" x="0" y="0" width="157" height="157"></rect>
                    <rect id="Rectangle-Copy-5" data-group="rect-top1" fill="#959595" transform="translate(78.500000, 39.500000) rotate(-45.000000) translate(-78.500000, -39.500000) " x="51" y="12" width="55" height="55"></rect>
                    <rect id="Rectangle-Copy-8" data-group="rect-rig1" fill="#EFEFEF" transform="translate(117.500000, 78.500000) rotate(-45.000000) translate(-117.500000, -78.500000) " x="90" y="51" width="55" height="55"></rect>
                    <rect id="Rectangle-Copy-6" data-group="rect-lef1" fill="#EFEFEF" transform="translate(39.500000, 78.500000) rotate(-45.000000) translate(-39.500000, -78.500000) " x="12" y="51" width="55" height="55"></rect>
                    <rect id="Rectangle-Copy-7" data-group="rect-bot1" fill="#959595" transform="translate(78.500000, 117.500000) rotate(-45.000000) translate(-78.500000, -117.500000) " x="51" y="90" width="55" height="55"></rect>
                </g>

                <g id="rect-6" transform="translate(364.000000, 182.000000)">
                    <rect id="Rectangle" data-group="bg2" fill="#D8D8D8" x="0" y="0" width="157" height="157"></rect>
                    <rect id="Rectangle-Copy-5" data-group="rect-top2" fill="#EFEFEF" transform="translate(78.500000, 39.500000) rotate(-45.000000) translate(-78.500000, -39.500000) " x="51" y="12" width="55" height="55"></rect>
                    <rect id="Rectangle-Copy-8" data-group="rect-rig2" fill="#959595" transform="translate(117.500000, 78.500000) rotate(-45.000000) translate(-117.500000, -78.500000) " x="90" y="51" width="55" height="55"></rect>
                    <rect id="Rectangle-Copy-6" data-group="rect-lef2" fill="#959595" transform="translate(39.500000, 78.500000) rotate(-45.000000) translate(-39.500000, -78.500000) " x="12" y="51" width="55" height="55"></rect>
                    <rect id="Rectangle-Copy-7" data-group="rect-bot2" fill="#EFEFEF" transform="translate(78.500000, 117.500000) rotate(-45.000000) translate(-78.500000, -117.500000) " x="51" y="90" width="55" height="55"></rect>
                </g>
                
                <g id="rect-7" transform="translate(0.000000, 364.000000)">
                    <rect id="Rectangle" data-group="bg1" fill="#D8D8D8" x="0" y="0" width="157" height="157"></rect>
                    <rect id="Rectangle-Copy-5" data-group="rect-top1" fill="#959595" transform="translate(78.500000, 39.500000) rotate(-45.000000) translate(-78.500000, -39.500000) " x="51" y="12" width="55" height="55"></rect>
                    <rect id="Rectangle-Copy-8" data-group="rect-rig1" fill="#EFEFEF" transform="translate(117.500000, 78.500000) rotate(-45.000000) translate(-117.500000, -78.500000) " x="90" y="51" width="55" height="55"></rect>
                    <rect id="Rectangle-Copy-6" data-group="rect-lef1" fill="#EFEFEF" transform="translate(39.500000, 78.500000) rotate(-45.000000) translate(-39.500000, -78.500000) " x="12" y="51" width="55" height="55"></rect>
                    <rect id="Rectangle-Copy-7" data-group="rect-bot1" fill="#959595" transform="translate(78.500000, 117.500000) rotate(-45.000000) translate(-78.500000, -117.500000) " x="51" y="90" width="55" height="55"></rect>
                </g>
        
                <g id="rect-8" transform="translate(182.000000, 364.000000)">
                    <rect id="Rectangle" data-group="bg2" fill="#D8D8D8" x="0" y="0" width="157" height="157"></rect>
                    <rect id="Rectangle-Copy-5" data-group="rect-top2" fill="#EFEFEF" transform="translate(78.500000, 39.500000) rotate(-45.000000) translate(-78.500000, -39.500000) " x="51" y="12" width="55" height="55"></rect>
                    <rect id="Rectangle-Copy-8" data-group="rect-rig2" fill="#959595" transform="translate(117.500000, 78.500000) rotate(-45.000000) translate(-117.500000, -78.500000) " x="90" y="51" width="55" height="55"></rect>
                    <rect id="Rectangle-Copy-6" data-group="rect-lef2" fill="#959595" transform="translate(39.500000, 78.500000) rotate(-45.000000) translate(-39.500000, -78.500000) " x="12" y="51" width="55" height="55"></rect>
                    <rect id="Rectangle-Copy-7" data-group="rect-bot2" fill="#EFEFEF" transform="translate(78.500000, 117.500000) rotate(-45.000000) translate(-78.500000, -117.500000) " x="51" y="90" width="55" height="55"></rect>
                </g>

                <g id="rect-9" transform="translate(364.000000, 364.000000)">
                    <rect id="Rectangle" data-group="bg1" fill="#D8D8D8" x="0" y="0" width="157" height="157"></rect>
                    <rect id="Rectangle-Copy-5" data-group="rect-top1" fill="#959595" transform="translate(78.500000, 39.500000) rotate(-45.000000) translate(-78.500000, -39.500000) " x="51" y="12" width="55" height="55"></rect>
                    <rect id="Rectangle-Copy-8" data-group="rect-rig1" fill="#EFEFEF" transform="translate(117.500000, 78.500000) rotate(-45.000000) translate(-117.500000, -78.500000) " x="90" y="51" width="55" height="55"></rect>
                    <rect id="Rectangle-Copy-6" data-group="rect-lef1" fill="#EFEFEF" transform="translate(39.500000, 78.500000) rotate(-45.000000) translate(-39.500000, -78.500000) " x="12" y="51" width="55" height="55"></rect>
                    <rect id="Rectangle-Copy-7" data-group="rect-bot1" fill="#959595" transform="translate(78.500000, 117.500000) rotate(-45.000000) translate(-78.500000, -117.500000) " x="51" y="90" width="55" height="55"></rect>
                </g>
            </g>
        </g>
    </g>
</svg>